<mxfile host="app.diagrams.net" modified="2022-10-19T08:55:22.153Z" agent="5.0 (Macintosh; Intel Mac OS X 10_15_7) AppleWebKit/537.36 (KHTML, like Gecko) Chrome/106.0.0.0 Safari/537.36" etag="wFkgGKlWf6WHS11cwWUN" version="20.4.0" type="github">
  <diagram id="bkQRVtrDPTtcfwgvxBZ1" name="github-flow">
    <mxGraphModel dx="1426" dy="684" grid="1" gridSize="10" guides="1" tooltips="1" connect="1" arrows="1" fold="1" page="1" pageScale="1" pageWidth="600" pageHeight="300" math="0" shadow="0">
      <root>
        <mxCell id="0" />
        <mxCell id="1" parent="0" />
        <mxCell id="87uqacZlBXMv8sk-IKTu-3" style="edgeStyle=orthogonalEdgeStyle;rounded=0;orthogonalLoop=1;jettySize=auto;html=1;exitX=1;exitY=0.25;exitDx=0;exitDy=0;entryX=0.034;entryY=0.47;entryDx=0;entryDy=0;entryPerimeter=0;" edge="1" parent="1" source="Ci-Bnrx3_0YKwdIIezH2-1" target="Ci-Bnrx3_0YKwdIIezH2-3">
          <mxGeometry relative="1" as="geometry" />
        </mxCell>
        <mxCell id="87uqacZlBXMv8sk-IKTu-4" style="edgeStyle=orthogonalEdgeStyle;rounded=0;orthogonalLoop=1;jettySize=auto;html=1;exitX=1;exitY=0.75;exitDx=0;exitDy=0;entryX=0;entryY=0.5;entryDx=0;entryDy=0;" edge="1" parent="1" source="Ci-Bnrx3_0YKwdIIezH2-1" target="Ci-Bnrx3_0YKwdIIezH2-4">
          <mxGeometry relative="1" as="geometry" />
        </mxCell>
        <mxCell id="Ci-Bnrx3_0YKwdIIezH2-1" value="master/feature branch" style="rounded=0;whiteSpace=wrap;html=1;" parent="1" vertex="1">
          <mxGeometry x="20" y="20" width="140" height="94.29" as="geometry" />
        </mxCell>
        <mxCell id="Ci-Bnrx3_0YKwdIIezH2-3" value="other" style="rounded=0;whiteSpace=wrap;html=1;" parent="1" vertex="1">
          <mxGeometry x="226.43" y="20" width="103.57" height="50" as="geometry" />
        </mxCell>
        <mxCell id="Ci-Bnrx3_0YKwdIIezH2-4" value="contributors" style="rounded=0;whiteSpace=wrap;html=1;" parent="1" vertex="1">
          <mxGeometry x="226.43" y="90" width="113.57" height="50" as="geometry" />
        </mxCell>
        <mxCell id="Ci-Bnrx3_0YKwdIIezH2-5" value="branch" style="rounded=0;whiteSpace=wrap;html=1;" parent="1" vertex="1">
          <mxGeometry x="454.29" y="90" width="115.71" height="50" as="geometry" />
        </mxCell>
        <mxCell id="Ci-Bnrx3_0YKwdIIezH2-8" style="edgeStyle=orthogonalEdgeStyle;rounded=0;orthogonalLoop=1;jettySize=auto;html=1;" parent="1" source="Ci-Bnrx3_0YKwdIIezH2-3" edge="1">
          <mxGeometry relative="1" as="geometry">
            <mxPoint x="510" y="90" as="targetPoint" />
            <Array as="points">
              <mxPoint x="510" y="45" />
            </Array>
          </mxGeometry>
        </mxCell>
        <mxCell id="Ci-Bnrx3_0YKwdIIezH2-9" value="fork" style="edgeLabel;html=1;align=center;verticalAlign=middle;resizable=0;points=[];" parent="Ci-Bnrx3_0YKwdIIezH2-8" vertex="1" connectable="0">
          <mxGeometry x="-0.2308" y="3" relative="1" as="geometry">
            <mxPoint as="offset" />
          </mxGeometry>
        </mxCell>
        <mxCell id="Ci-Bnrx3_0YKwdIIezH2-6" style="edgeStyle=orthogonalEdgeStyle;rounded=0;orthogonalLoop=1;jettySize=auto;html=1;entryX=0;entryY=0.5;entryDx=0;entryDy=0;" parent="1" source="Ci-Bnrx3_0YKwdIIezH2-4" target="Ci-Bnrx3_0YKwdIIezH2-5" edge="1">
          <mxGeometry relative="1" as="geometry" />
        </mxCell>
        <mxCell id="Ci-Bnrx3_0YKwdIIezH2-7" value="branch" style="edgeLabel;html=1;align=center;verticalAlign=middle;resizable=0;points=[];" parent="Ci-Bnrx3_0YKwdIIezH2-6" vertex="1" connectable="0">
          <mxGeometry x="-0.0154" y="3" relative="1" as="geometry">
            <mxPoint as="offset" />
          </mxGeometry>
        </mxCell>
        <mxCell id="Ci-Bnrx3_0YKwdIIezH2-12" value="action(Testing)" style="rounded=0;whiteSpace=wrap;html=1;" parent="1" vertex="1">
          <mxGeometry x="454.29" y="214.29000000000002" width="115.71" height="55.71" as="geometry" />
        </mxCell>
        <mxCell id="Ci-Bnrx3_0YKwdIIezH2-13" style="edgeStyle=orthogonalEdgeStyle;rounded=0;orthogonalLoop=1;jettySize=auto;html=1;entryX=0.5;entryY=0;entryDx=0;entryDy=0;" parent="1" source="Ci-Bnrx3_0YKwdIIezH2-5" target="Ci-Bnrx3_0YKwdIIezH2-12" edge="1">
          <mxGeometry relative="1" as="geometry" />
        </mxCell>
        <mxCell id="Ci-Bnrx3_0YKwdIIezH2-14" value="PR" style="edgeLabel;html=1;align=center;verticalAlign=middle;resizable=0;points=[];" parent="Ci-Bnrx3_0YKwdIIezH2-13" vertex="1" connectable="0">
          <mxGeometry x="-0.3" relative="1" as="geometry">
            <mxPoint as="offset" />
          </mxGeometry>
        </mxCell>
        <mxCell id="Ci-Bnrx3_0YKwdIIezH2-18" style="edgeStyle=orthogonalEdgeStyle;rounded=0;orthogonalLoop=1;jettySize=auto;html=1;entryX=0.5;entryY=1;entryDx=0;entryDy=0;" parent="1" source="Ci-Bnrx3_0YKwdIIezH2-15" target="Ci-Bnrx3_0YKwdIIezH2-1" edge="1">
          <mxGeometry relative="1" as="geometry" />
        </mxCell>
        <mxCell id="Ci-Bnrx3_0YKwdIIezH2-19" value="merge" style="edgeLabel;html=1;align=center;verticalAlign=middle;resizable=0;points=[];" parent="Ci-Bnrx3_0YKwdIIezH2-18" vertex="1" connectable="0">
          <mxGeometry x="-0.2" y="1" relative="1" as="geometry">
            <mxPoint as="offset" />
          </mxGeometry>
        </mxCell>
        <mxCell id="87uqacZlBXMv8sk-IKTu-8" style="edgeStyle=orthogonalEdgeStyle;rounded=0;orthogonalLoop=1;jettySize=auto;html=1;" edge="1" parent="1" source="Ci-Bnrx3_0YKwdIIezH2-15">
          <mxGeometry relative="1" as="geometry">
            <mxPoint x="500" y="170" as="targetPoint" />
            <Array as="points">
              <mxPoint x="345" y="170" />
            </Array>
          </mxGeometry>
        </mxCell>
        <mxCell id="Ci-Bnrx3_0YKwdIIezH2-15" value="discuss/review" style="rounded=0;whiteSpace=wrap;html=1;" parent="1" vertex="1">
          <mxGeometry x="290" y="214.29000000000002" width="110" height="55.71" as="geometry" />
        </mxCell>
        <mxCell id="Ci-Bnrx3_0YKwdIIezH2-16" style="edgeStyle=orthogonalEdgeStyle;rounded=0;orthogonalLoop=1;jettySize=auto;html=1;entryX=1;entryY=0.5;entryDx=0;entryDy=0;" parent="1" source="Ci-Bnrx3_0YKwdIIezH2-12" target="Ci-Bnrx3_0YKwdIIezH2-15" edge="1">
          <mxGeometry relative="1" as="geometry" />
        </mxCell>
      </root>
    </mxGraphModel>
  </diagram>
</mxfile>
